HIERARCHY
ROOT ui
{
	 OFFSET 0 0 0
	 CHANNELS 3 XPosition YPosition Z Position
	 EndSite
	 {
	 OFFSET 0 -1 0
	 }
}
ROOT li
{
	 OFFSET 0 0 0
	 CHANNELS 3 XPosition YPosition Z Position
	 EndSite
	 {
	 OFFSET 0 -1 0
	 }
}
ROOT ul
{
	 OFFSET 0 0 0
	 CHANNELS 3 XPosition YPosition Z Position
	 EndSite
	 {
	 OFFSET 0 -1 0
	 }
}
ROOT ll
{
	 OFFSET 0 0 0
	 CHANNELS 3 XPosition YPosition Z Position
	 EndSite
	 {
	 OFFSET 0 -1 0
	 }
}
ROOT tt
{
	 OFFSET 0 0 0
	 CHANNELS 3 XPosition YPosition Z Position
	 EndSite
	 {
	 OFFSET 0 -1 0
	 }
}
ROOT tb
{
	 OFFSET 0 0 0
	 CHANNELS 3 XPosition YPosition Z Position
	 EndSite
	 {
	 OFFSET 0 -1 0
	 }
}
ROOT td
{
	 OFFSET 0 0 0
	 CHANNELS 3 XPosition YPosition Z Position
	 EndSite
	 {
	 OFFSET 0 -1 0
	 }
}
ROOT v
{
	 OFFSET 0 0 0
	 CHANNELS 3 XPosition YPosition Z Position
	 EndSite
	 {
	 OFFSET 0 -1 0
	 }
}
ROOT bn
{
	 OFFSET 0 0 0
	 CHANNELS 3 XPosition YPosition Z Position
	 EndSite
	 {
	 OFFSET 0 -1 0
	 }
}
MOTION
Frames: 24
Frame Time: 0.002
0.025430803298950196	0.001363679051399231	0		0.5648494262695313	-2.501609619140625	0		-0.8097536010742188	0.31691876220703125	0		-0.5869573974609374	-2.807220703125	0		1.560762451171875	-0.5225226440429688	0		3.356276123046875	-0.4737352600097656	0		4.6599677734375	-0.6245145263671875	0		5.88056298828125	0.432505859375	0		-0.268500244140625	5.8792578125	0		
-9.396229982376099E-4	0.001932618021965027	0		0.536476806640625	-2.501023193359375	0		-0.8251513061523438	0.31438925170898435	0		-0.5632781982421875	-2.80110302734375	0		1.59734375	-0.52752392578125	0		3.340913818359375	-0.47226873779296874	0		4.6805859375	-0.6253742065429687	0		5.879201171875	0.43384365844726563	0		-0.31899078369140627	5.86604443359375	0		
0.02167805290222168	-0.0019348009824752808	0		0.5511602172851563	-2.497818115234375	0		-0.8295327758789063	0.31076492309570314	0		-0.6034658813476562	-2.78340283203125	0		1.60002587890625	-0.5242095947265625	0		3.3496318359375	-0.4650072326660156	0		4.67329541015625	-0.618967041015625	0		5.874783203125	0.4262253723144531	0		-0.28528839111328125	5.87207666015625	0		
-0.00462644100189209	-3.563939929008484E-4	0		0.5338077392578126	-2.5023193359375	0		-0.824884521484375	0.30706143188476565	0		-0.6096465454101563	-2.769007080078125	0		1.6075770263671876	-0.538933349609375	0		3.38828076171875	-0.4690067138671875	0		4.69599951171875	-0.61681884765625	0		5.8875390625	0.43446673583984374	0		-0.319671142578125	5.86672705078125	0		
0.02200935745239258	-0.009254722595214844	0		0.535554931640625	-2.499990234375	0		-0.8941288452148437	0.3120252075195312	0		-0.6268973388671875	-2.766511474609375	0		1.6133603515625	-0.5316356811523437	0		3.383226806640625	-0.44360260009765623	0		4.70773828125	-0.6145614013671875	0		5.89132763671875	0.4428014526367188	0		-0.3189881896972656	5.8660615234375	0		
-0.00213083291053772	0.0033060190677642824	0		0.5294392700195313	-2.48658837890625	0		-0.82038330078125	0.31169677734375	0		-0.5919768676757813	-2.7494873046875	0		1.639176513671875	-0.5245151977539062	0		3.4009345703125	-0.44839794921875	0		4.72559130859375	-0.6033487548828125	0		5.90415576171875	0.4520670166015625	0		-0.3051863098144531	5.87627734375	0		
-0.005376873970031738	6.766579747200012E-4	0		0.5182969970703125	-2.480141357421875	0		-0.8256410522460937	0.308078125	0		-0.6330165405273438	-2.7317802734375	0		1.671879638671875	-0.533453857421875	0		3.416871826171875	-0.43116876220703126	0		4.73147607421875	-0.592017333984375	0		5.9039326171875	0.4524634704589844	0		-0.15131121826171876	5.89223046875	0		
-0.005568490028381347	0.001018280029296875	0		0.5520155639648437	-2.49309912109375	0		-0.824917236328125	0.2994017028808594	0		-0.6030699462890625	-2.71971630859375	0		1.7106746826171875	-0.5354437255859374	0		3.436612548828125	-0.4389673767089844	0		4.7582001953125	-0.60186376953125	0		5.8947451171875	0.4539539794921875	0		-0.28576309204101563	5.87177685546875	0		
-0.009770401954650879	-0.0026066579818725586	0		0.5159834594726562	-2.481429443359375	0		-0.8940487060546874	0.3043492431640625	0		-0.6400181274414063	-2.699053955078125	0		1.721407470703125	-0.5471798706054688	0		3.43456005859375	-0.42656430053710936	0		4.76819482421875	-0.58455078125	0		5.90257275390625	0.45430099487304687	0		-0.28600875854492186	5.87211181640625	0		
-0.005875726222991943	0.0016927030086517335	0		0.5367434692382812	-2.496274169921875	0		-0.8201972045898438	0.30400799560546876	0		-0.6290123901367187	-2.686826904296875	0		1.7412647705078126	-0.5479983520507813	0		3.4523798828125	-0.4313395690917969	0		4.7810888671875	-0.5812619018554688	0		5.89849658203125	0.4627587585449219	0		-0.3533499450683594	5.86004443359375	0		
0.006955173969268799	-0.004092240810394287	0		0.5348270874023437	-2.477917724609375	0		-0.8843229370117187	0.3039001159667969	0		-0.6248634643554688	-2.661541748046875	0		1.7521666259765625	-0.5467396240234375	0		3.485467041015625	-0.4092531127929688	0		4.79113427734375	-0.5639495239257812	0		5.91537451171875	0.46302581787109376	0		-0.3175177917480469	5.86404833984375	0		
0.019912508010864256	0.0011180039644241332	0		0.5477845458984375	-2.47669970703125	0		-0.8204078979492188	0.30464169311523437	0		-0.63180419921875	-2.649162109375	0		1.7960233154296874	-0.5537807006835938	0		3.49633203125	-0.41497412109375	0		4.81509912109375	-0.5587682495117188	0		5.91528076171875	0.4634381713867187	0		-0.319662841796875	5.8673876953125	0		
-0.006136107921600342	0.002671792030334473	0		0.5197611083984375	-2.47612060546875	0		-0.8935480346679687	0.29660385131835937	0		-0.6326657104492187	-2.63084130859375	0		1.7988829345703126	-0.5634609375	0		3.5083857421875	-0.40271218872070313	0		4.82909228515625	-0.5535057983398437	0		5.91437646484375	0.48184906005859374	0		-0.2857586669921875	5.8724013671875	0		
-0.005239047050476074	-0.005020697116851807	0		0.5437155151367188	-2.481011474609375	0		-0.8237020263671875	0.2832853088378906	0		-0.6585469360351562	-2.6173017578125	0		1.80684033203125	-0.565193115234375	0		3.514296630859375	-0.4094046020507813	0		4.84208544921875	-0.551244140625	0		5.9143388671875	0.482240478515625	0		-0.2848739013671875	5.871705078125	0		
-0.006174006938934326	0.00329843807220459	0		0.49482867431640626	-2.470259033203125	0		-0.882673583984375	0.2881114501953125	0		-0.6933170166015625	-2.593688232421875	0		1.861776123046875	-0.5723510131835937	0		3.5275615234375	-0.3791705322265625	0		4.8681552734375	-0.5431096801757812	0		5.92824609375	0.4734947204589844	0		-0.31899072265625	5.86731494140625	0		
0.01983401870727539	0.0023720688819885254	0		0.524887939453125	-2.468216064453125	0		-0.8776231689453124	0.29236285400390627	0		-0.7109345703125	-2.555231689453125	0		1.873817138671875	-0.5701343383789063	0		3.556484375	-0.39008786010742186	0		4.88341845703125	-0.515890625	0		5.92741064453125	0.49086700439453124	0		-0.3180491943359375	5.86560791015625	0		
-0.0011597570180892944	-0.0011424260139465332	0		0.5229318237304688	-2.469895263671875	0		-0.8826199951171875	0.28869873046875	0		-0.6678206787109375	-2.5493212890625	0		1.8977996826171875	-0.577032958984375	0		3.591607177734375	-0.38107077026367187	0		4.8993740234375	-0.5256929321289062	0		5.93237646484375	0.48317105102539065	0		-0.3180572509765625	5.86590380859375	0		
0.019935930252075195	0.0029627740383148192	0		0.5140807495117188	-2.461520263671875	0		-0.8126790771484375	0.2753637390136719	0		-0.7035547485351562	-2.52771533203125	0		1.903926513671875	-0.569781982421875	0		3.6127587890625	-0.3709416809082031	0		4.91653564453125	-0.5145195922851562	0		5.92751416015625	0.49254669189453126	0		-0.28497479248046875	5.872900390625	0		
-0.010013498306274415	5.129960179328919E-4	0		0.5220805053710937	-2.471304443359375	0		-0.8126044311523437	0.2756434326171875	0		-0.6963949584960938	-2.519497314453125	0		1.9769404296875	-0.5771355590820313	0		3.6268271484375	-0.3717632751464844	0		4.93472021484375	-0.5023704528808594	0		5.93558740234375	0.49279022216796875	0		-0.28393804931640626	5.872173828125	0		
-0.004964579105377198	-0.0032564458847045897	0		0.5252094116210938	-2.467054443359375	0		-0.881482666015625	0.28052691650390627	0		-0.7650502319335938	-2.490614501953125	0		1.9861243896484375	-0.565933837890625	0		3.647912353515625	-0.3716614990234375	0		4.955796875	-0.5032638549804688	0		5.9366611328125	0.4920778198242188	0		-0.2828926391601562	5.87043896484375	0		
0.0021750390529632567	0.00294563889503479	0		0.5313629150390625	-2.459842529296875	0		-0.8033641357421875	0.284097900390625	0		-0.675864501953125	-2.48014111328125	0		2.0013800048828125	-0.5467991943359375	0		3.703263671875	-0.3418785400390625	0		4.98704296875	-0.48526504516601565	0		5.95390576171875	0.5102027282714844	0		-0.3007815856933594	5.8748623046875	0		
-7.68438994884491E-4	2.2511099278926848E-4	0		0.5164556884765625	-2.458456787109375	0		-0.8123517456054687	0.27643063354492187	0		-0.752600830078125	-2.45920654296875	0		2.031594970703125	-0.5318126831054687	0		3.68432958984375	-0.34345675659179686	0		5.00624951171875	-0.47118057250976564	0		5.93991845703125	0.5025807189941406	0		-0.31777850341796876	5.86626611328125	0		
-0.004720993995666504	-0.0024994668960571288	0		0.5165247802734375	-2.4582177734375	0		-0.8163126220703125	0.27270770263671873	0		-0.6804193115234375	-2.446604248046875	0		2.0438092041015623	-0.515683837890625	0		3.71543701171875	-0.33949917602539065	0		5.0252861328125	-0.47511886596679687	0		5.94899267578125	0.5027291259765625	0		-0.3176931457519531	5.86650634765625	0		
-0.009625505447387696	0.0017703380584716797	0		0.5076544799804688	-2.4489150390625	0		-0.890248779296875	0.27359317016601564	0		-0.7630914306640625	-2.414640625	0		2.074998779296875	-0.500742431640625	0		3.74152099609375	-0.3365198974609375	0		5.04244970703125	-0.46306558227539063	0		5.9490546875	0.5029298095703125	0		-0.28256576538085937	5.87142236328125	0		
